<svg xmlns="http://www.w3.org/2000/svg" width="345" height="35" fill="none"><g stroke="#0C0D0D" clip-path="url(#a)" opacity=".3" style="mix-blend-mode:overlay"><path d="m.646 35.921 226.275-226.274M2.061 37.335l226.274-226.274M3.475 38.749l226.274-226.274M4.889 40.163l226.274-226.274M6.303 41.578l226.274-226.275M7.717 42.992l226.274-226.274M9.131 44.406l226.274-226.274M10.547 45.82l226.274-226.274M11.961 47.235 238.235-179.04M13.375 48.649l226.274-226.274M14.789 50.063l226.274-226.274M16.203 51.477l226.274-226.274M17.617 52.891l226.274-226.274M19.031 54.306l226.274-226.275M20.445 55.72l226.274-226.274M21.859 57.134 248.133-169.14M23.273 58.548l226.275-226.274M24.688 59.963l226.274-226.275M26.102 61.377l226.274-226.274M27.516 62.791 253.79-163.483M28.932 64.205l226.274-226.274M30.346 65.619 256.62-160.655M31.76 67.034l226.274-226.275M33.174 68.448l226.274-226.274M34.588 69.862l226.274-226.274M36.002 71.276l226.274-226.274M37.416 72.69 263.69-153.584M38.83 74.105l226.274-226.274M40.244 75.519l226.274-226.274M41.658 76.933l226.274-226.274M43.072 78.347l226.274-226.274M44.486 79.761 270.76-146.513M45.9 81.176l226.275-226.274M47.316 82.59l226.275-226.274M48.73 84.004 275.005-142.27M50.145 85.418l226.274-226.274M51.559 86.832l226.274-226.274M52.973 88.247l226.274-226.274M54.387 89.661l226.274-226.274M55.801 91.075l226.274-226.274M57.215 92.49l226.274-226.275M58.629 93.903l226.274-226.274M60.043 95.318l226.274-226.274M61.457 96.732l226.274-226.274M62.871 98.146l226.274-226.274M64.285 99.561l226.274-226.275M65.701 100.975 291.975-125.3M67.115 102.389l226.274-226.274M68.529 103.803l226.274-226.274M69.943 105.217l226.274-226.274M71.357 106.632l226.275-226.275M72.771 108.046l226.275-226.274M74.186 109.46 300.46-116.814M75.6 110.874 301.874-115.4M77.014 112.288l226.274-226.274M78.428 113.703l226.274-226.275M79.842 115.117l226.274-226.274M81.256 116.531 307.53-109.743M82.67 117.945l226.274-226.274M84.086 119.36 310.36-106.915M85.5 120.774l226.274-226.275M86.914 122.188l226.274-226.274M88.328 123.602l226.274-226.274M89.742 125.016l226.274-226.274M91.156 126.431 317.43-99.844M92.57 127.845 318.844-98.43M93.984 129.259 320.259-97.015M95.398 130.673 321.673-95.601M96.813 132.087 323.087-94.187M98.227 133.502 324.501-92.772M99.641 134.916 325.915-91.358M101.055 136.33 327.329-89.944M102.471 137.744 328.745-88.53M103.885 139.158 330.159-87.116M105.299 140.573 331.573-85.701M106.713 141.987 332.987-84.287M108.127 143.401 334.401-82.873M109.541 144.815 335.815-81.459M110.955 146.229 337.229-80.045M112.369 147.644 338.643-78.63M113.783 149.058 340.057-77.216M115.197 150.472 341.471-75.802M116.611 151.886 342.885-74.388M118.025 153.3 344.3-72.974M119.439 154.715 345.714-71.559M120.855 156.129 347.13-70.145M122.269 157.543 348.544-68.731M123.684 158.957 349.958-67.317M125.098 160.372 351.372-65.903M126.512 161.786 352.786-64.488M127.926 163.2 354.2-63.074M129.34 164.614 355.614-61.66M130.754 166.029 357.028-60.246M132.168 167.443 358.442-58.831M133.582 168.857 359.856-57.417M134.996 170.271 361.27-56.003M136.41 171.685 362.684-54.589M137.826 173.1 364.1-53.175M139.24 174.514 365.514-51.76M140.654 175.928 366.928-50.346M142.068 177.342 368.342-48.932M143.482 178.756 369.757-47.518M144.896 180.171 371.171-46.103M146.311 181.585 372.585-44.689M147.725 182.999 373.999-43.275M149.139 184.413 375.413-41.861M150.553 185.828 376.827-40.447M151.967 187.242 378.241-39.032M153.381 188.656 379.655-37.618M154.795 190.07 381.069-36.204"/></g><defs><clipPath id="a"><path fill="#fff" d="M0 0h345v35H0z"/></clipPath></defs></svg>